<?xml version="1.0" encoding="utf-8"?>
<!-- Generator: Adobe Illustrator 19.0.0, SVG Export Plug-In . SVG Version: 6.00 Build 0)  -->
<svg version="1.1" id="Layer_1" xmlns="http://www.w3.org/2000/svg" xmlns:xlink="http://www.w3.org/1999/xlink" x="0px" y="0px"
	 viewBox="0 0 1500 1500" style="enable-background:new 0 0 1500 1500;" xml:space="preserve">
<style type="text/css">
	.st0{fill:#93D9F8;}
	.st1{fill:#FFFFFF;}
	.st2{fill:#B2E3F8;}
	.st3{fill:#DEDDDD;}
	.st4{fill:#18A049;}
	.st5{fill:#F89A24;}
	.st6{fill:#6C4A21;}
	.st7{fill:#9E6F44;}
	.st8{fill:#A3286F;}
	.st9{fill:#72194F;}
	.st10{fill:#AC8258;}
	.st11{fill:#8CC445;}
	.st12{fill:#C7EAF9;}
</style>
<g id="XMLID_275_">
	<g id="XMLID_35_">
		<path id="XMLID_506_" class="st0" d="M137.5,976.5c0,0-1.8-35.4,13.9-44.4c15.7-9,19.2-35.7,22.1-108.2
			c3-72.6-23.3-267.3,157.6-301.5s136.3-211.1,271-286.7c134.8-75.6,310-64.8,406,129.6s276.3,185.5,315,282.7
			c38.7,97.2-15,169.9,17.9,218.8s18.1,111.6,18.1,111.6L137.5,976.5z"/>
	</g>
	<g id="XMLID_135_">
		<circle id="XMLID_505_" class="st1" cx="992.2" cy="481" r="55.3"/>
	</g>
	<g id="XMLID_140_">
		<path id="XMLID_504_" class="st2" d="M1111.3,943.6C838,813.2,957.8,683.2,775.6,700c-182.2,16.8-246.9-79.7-378.1-132.5
			c-67.7-27.2-134.8-2.7-183.9,27.4c-49.6,73.4-38,179.5-40.1,229c-3,72.6-6.4,99.2-22.1,108.2c-15.7,9-13.9,44.4-13.9,44.4
			l1049.6,1.6C1160.9,966.6,1135.3,955.1,1111.3,943.6z"/>
	</g>
	<g id="XMLID_133_">
		<g id="XMLID_132_">
			<rect id="XMLID_503_" x="241.3" y="745" class="st3" width="1019.3" height="40.5"/>
		</g>
		<g id="XMLID_134_">
			<rect id="XMLID_502_" x="241.3" y="852.1" class="st3" width="1019.3" height="40.5"/>
		</g>
		<g id="XMLID_36_">
			<g id="XMLID_17_">
				<polygon id="XMLID_501_" class="st1" points="277.2,980.6 219.7,980.6 219.7,718 248.5,700 277.2,718 				"/>
			</g>
			<g id="XMLID_44_">
				<polygon id="XMLID_500_" class="st1" points="388.7,980.6 331.2,980.6 331.2,718 359.9,700 388.7,718 				"/>
			</g>
			<g id="XMLID_46_">
				<polygon id="XMLID_499_" class="st1" points="500.1,980.6 442.6,980.6 442.6,718 471.4,700 500.1,718 				"/>
			</g>
			<g id="XMLID_47_">
				<polygon id="XMLID_498_" class="st1" points="611.6,980.6 554.1,980.6 554.1,718 582.8,700 611.6,718 				"/>
			</g>
			<g id="XMLID_48_">
				<polygon id="XMLID_497_" class="st1" points="723,980.6 665.5,980.6 665.5,718 694.3,700 723,718 				"/>
			</g>
			<g id="XMLID_50_">
				<polygon id="XMLID_496_" class="st1" points="834.5,980.6 777,980.6 777,718 805.7,700 834.5,718 				"/>
			</g>
			<g id="XMLID_55_">
				<polygon id="XMLID_495_" class="st1" points="945.9,980.6 888.4,980.6 888.4,718 917.2,700 945.9,718 				"/>
			</g>
			<g id="XMLID_121_">
				<polygon id="XMLID_494_" class="st1" points="1057.4,980.6 999.9,980.6 999.9,718 1028.6,700 1057.4,718 				"/>
			</g>
			<g id="XMLID_130_">
				<polygon id="XMLID_493_" class="st1" points="1168.8,980.6 1111.3,980.6 1111.3,718 1140.1,700 1168.8,718 				"/>
			</g>
			<g id="XMLID_131_">
				<polygon id="XMLID_492_" class="st1" points="1280.3,980.6 1222.8,980.6 1222.8,718 1251.5,700 1280.3,718 				"/>
			</g>
		</g>
	</g>
	<g id="XMLID_21_">
		<g id="XMLID_42_">
			<path id="XMLID_479_" class="st4" d="M638,882.2c-0.2-0.9-2.7-9.3-16.4-10.6c-4.6-0.4-8-4.5-7.6-9.2c0.4-4.6,4.5-8,9.2-7.6
				c26.7,2.5,31.1,23,31.3,23.8l-16.5,3.4L638,882.2z"/>
		</g>
		<g id="XMLID_52_">
			<path id="XMLID_478_" class="st4" d="M669.6,882.8l0-0.2l-16.5-3.4c0.2-0.9,4.6-21.3,31.3-23.8c4.6-0.4,8.7,3,9.2,7.6
				c0.4,4.6-3,8.7-7.6,9.2C672.3,873.5,669.8,881.8,669.6,882.8z"/>
		</g>
		<g id="XMLID_54_">
			<path id="XMLID_477_" class="st4" d="M640.1,859.9c-0.2-0.9-1.9-5.2-9.9-5.9c-4.6-0.4-8-4.5-7.6-9.2c0.4-4.6,4.5-8,9.2-7.6
				c16.8,1.6,23.4,12.7,24.7,19.1l-16.5,3.4C640,859.6,640,859.7,640.1,859.9z"/>
		</g>
		<g id="XMLID_53_">
			<path id="XMLID_476_" class="st4" d="M667.4,860.3c0-0.2,0.1-0.3,0.1-0.3l-16.5-3.4c1.3-6.3,8-17.5,24.7-19.1
				c4.6-0.4,8.7,3,9.2,7.6c0.4,4.6-3,8.7-7.6,9.2C669.3,855.1,667.7,859.4,667.4,860.3z"/>
		</g>
		<g id="XMLID_43_">
			<path id="XMLID_475_" class="st4" d="M654.3,886.9c-4.7,0-8.4-3.8-8.4-8.4v-40.2c0-4.7,3.8-8.4,8.4-8.4c4.7,0,8.4,3.8,8.4,8.4
				v40.2C662.7,883.1,659,886.9,654.3,886.9z"/>
		</g>
	</g>
	<g id="XMLID_56_">
		<g id="XMLID_63_">
			<path id="XMLID_474_" class="st4" d="M729.9,882.2c-0.2-0.9-2.7-9.3-16.4-10.6c-4.6-0.4-8-4.5-7.6-9.2c0.4-4.6,4.6-8,9.2-7.6
				c26.7,2.5,31.2,23,31.3,23.8l-16.5,3.4L729.9,882.2z"/>
		</g>
		<g id="XMLID_62_">
			<path id="XMLID_473_" class="st4" d="M761.5,882.8l0-0.2l-16.5-3.4c0.2-0.9,4.6-21.3,31.3-23.8c4.6-0.4,8.7,3,9.2,7.6
				c0.4,4.6-3,8.7-7.6,9.2C764.2,873.5,761.7,881.8,761.5,882.8z"/>
		</g>
		<g id="XMLID_59_">
			<path id="XMLID_472_" class="st4" d="M732,859.9c-0.2-0.9-1.9-5.2-9.9-5.9c-4.6-0.4-8-4.5-7.6-9.2c0.4-4.6,4.5-8,9.2-7.6
				c16.8,1.6,23.4,12.7,24.7,19.1l-16.5,3.4C731.9,859.6,732,859.7,732,859.9z"/>
		</g>
		<g id="XMLID_58_">
			<path id="XMLID_471_" class="st4" d="M751.2,866.8c-0.6,0-1.1-0.1-1.7-0.2c-4.6-0.9-7.5-5.4-6.6-9.9c1.3-6.3,8-17.5,24.7-19.1
				c4.6-0.4,8.7,3,9.2,7.6c0.4,4.6-3,8.7-7.6,9.2c-8.4,0.8-9.8,5.6-9.8,5.7C758.6,864,755.1,866.8,751.2,866.8z"/>
		</g>
		<g id="XMLID_57_">
			<path id="XMLID_470_" class="st4" d="M746.2,886.9c-4.7,0-8.4-3.8-8.4-8.4v-40.2c0-4.7,3.8-8.4,8.4-8.4s8.4,3.8,8.4,8.4v40.2
				C754.7,883.1,750.9,886.9,746.2,886.9z"/>
		</g>
	</g>
	<g id="XMLID_64_">
		<g id="XMLID_69_">
			<path id="XMLID_469_" class="st4" d="M821.8,882.2c-0.2-0.9-2.7-9.3-16.4-10.6c-4.6-0.4-8-4.5-7.6-9.2c0.4-4.6,4.5-8,9.2-7.6
				c26.7,2.5,31.2,23,31.3,23.8l-16.5,3.4L821.8,882.2z"/>
		</g>
		<g id="XMLID_68_">
			<path id="XMLID_468_" class="st4" d="M853.4,882.8l0-0.2l-16.5-3.4c0.2-0.9,4.6-21.3,31.3-23.8c4.6-0.4,8.7,3,9.2,7.6
				c0.4,4.6-3,8.7-7.6,9.2C856.2,873.5,853.7,881.8,853.4,882.8z"/>
		</g>
		<g id="XMLID_67_">
			<path id="XMLID_467_" class="st4" d="M823.9,859.9c-0.2-0.9-1.9-5.2-9.9-5.9c-4.6-0.4-8-4.5-7.6-9.2c0.4-4.6,4.5-8,9.2-7.6
				c16.8,1.6,23.4,12.7,24.7,19.1l-16.5,3.4C823.9,859.6,823.9,859.7,823.9,859.9z"/>
		</g>
		<g id="XMLID_66_">
			<path id="XMLID_466_" class="st4" d="M851.3,860.3c0-0.2,0.1-0.3,0.1-0.3l-16.5-3.4c1.3-6.3,8-17.5,24.7-19.1
				c4.6-0.4,8.7,3,9.2,7.6c0.4,4.6-3,8.7-7.6,9.2C853.1,855.1,851.5,859.4,851.3,860.3z"/>
		</g>
		<g id="XMLID_65_">
			<path id="XMLID_465_" class="st4" d="M838.1,886.9c-4.7,0-8.4-3.8-8.4-8.4v-40.2c0-4.7,3.8-8.4,8.4-8.4s8.4,3.8,8.4,8.4v40.2
				C846.6,883.1,842.8,886.9,838.1,886.9z"/>
		</g>
	</g>
	<g id="XMLID_18_">
		<g id="XMLID_16_">
			<g id="XMLID_13_">
				<g id="XMLID_15_">
					<path id="XMLID_464_" class="st4" d="M277.7,864.5c-4.5,0-8.2-3.5-8.4-8c0-0.2-1-19.3-4.5-34.6c-1.1-4.5,1.8-9.1,6.3-10.1
						c4.5-1.1,9.1,1.8,10.1,6.3c3.9,16.8,4.9,36.7,5,37.6c0.2,4.6-3.4,8.6-8,8.8C278,864.5,277.9,864.5,277.7,864.5z"/>
				</g>
				<g id="XMLID_8_">
					<g id="XMLID_10_">
						<path id="XMLID_463_" class="st4" d="M281.7,882.4c-4.1,0-7.7-3-8.3-7.2c-0.1-0.5-4.6-27.9-28-44.5c-3.8-2.7-4.7-7.9-2-11.7
							c2.7-3.8,7.9-4.7,11.7-2c29.5,20.9,34.7,54.4,34.9,55.8c0.7,4.6-2.5,8.9-7.1,9.6C282.5,882.4,282.1,882.4,281.7,882.4z"/>
					</g>
					<g id="XMLID_11_">
						<path id="XMLID_462_" class="st4" d="M280.2,875.8c-4.4,0-8.1-3.4-8.4-7.9c-0.1-1.8-2.4-44.1,36.3-62.6c4.2-2,9.2-0.2,11.2,4
							c2,4.2,0.2,9.2-4,11.2c-28.3,13.6-26.8,45-26.7,46.4c0.3,4.6-3.3,8.6-7.9,8.9C280.5,875.8,280.3,875.8,280.2,875.8z"/>
					</g>
				</g>
			</g>
			<g id="XMLID_7_">
				<path id="XMLID_454_" class="st5" d="M277.8,856.1c26.2,0,32.9,10.1,28.8,38.9c-4.1,28.8-28.8,91.3-28.8,91.3
					s-24.7-62.5-28.8-91.3C244.8,866.2,251.5,856.1,277.8,856.1z"/>
			</g>
			<g id="XMLID_9_">
				<path id="XMLID_458_" class="st6" d="M277.8,1009.3l-7.8-19.8c-1-2.6-25.1-63.8-29.3-93.3c-2.7-18.8-0.9-30.2,5.9-38.1
					c8.1-9.4,21.7-10.4,31.3-10.4c9.5,0,23.1,1.1,31.3,10.4c6.8,7.9,8.6,19.3,5.9,38.1c-4.2,29.5-28.3,90.7-29.3,93.3L277.8,1009.3z
					 M277.8,864.5c-9.8,0-15.8,1.5-18.5,4.6c-3.2,3.6-3.8,11.7-2,24.7c2.5,17.4,13,48.1,20.5,68.7c7.5-20.5,18-51.3,20.5-68.7
					c1.9-13,1.2-21-2-24.7C293.6,866.1,287.5,864.5,277.8,864.5z"/>
			</g>
		</g>
		<g id="XMLID_20_">
			<g id="XMLID_27_">
				<g id="XMLID_31_">
					<path id="XMLID_457_" class="st4" d="M367.6,864.5c-4.5,0-8.2-3.5-8.4-8c0-0.2-1-19.3-4.5-34.6c-1.1-4.5,1.8-9.1,6.3-10.1
						c4.5-1.1,9.1,1.8,10.1,6.3c3.9,16.8,4.9,36.7,5,37.6c0.2,4.6-3.4,8.6-8,8.8C367.9,864.5,367.7,864.5,367.6,864.5z"/>
				</g>
				<g id="XMLID_28_">
					<g id="XMLID_30_">
						<path id="XMLID_456_" class="st4" d="M371.5,882.4c-4.1,0-7.7-3-8.3-7.2c-0.1-0.5-4.6-27.9-28-44.5c-3.8-2.7-4.7-7.9-2-11.7
							c2.7-3.8,7.9-4.7,11.7-2c29.5,20.9,34.7,54.4,34.9,55.8c0.7,4.6-2.5,8.9-7.1,9.6C372.3,882.4,371.9,882.4,371.5,882.4z"/>
					</g>
					<g id="XMLID_29_">
						<path id="XMLID_455_" class="st4" d="M370,875.8c-4.4,0-8.1-3.4-8.4-7.9c-1.1-16.2,5.9-50.4,40.1-64.3c4.3-1.8,9.2,0.3,11,4.6
							c1.8,4.3-0.3,9.2-4.6,11c-31.6,12.9-29.7,47.3-29.7,47.6c0.3,4.6-3.2,8.7-7.9,9C370.4,875.8,370.2,875.8,370,875.8z"/>
					</g>
				</g>
			</g>
			<g id="XMLID_24_">
				<path id="XMLID_447_" class="st5" d="M367.6,856.1c26.2,0,32.9,10.1,28.8,38.9c-4.1,28.8-28.8,91.3-28.8,91.3
					s-24.7-62.5-28.8-91.3C334.7,866.2,341.4,856.1,367.6,856.1z"/>
			</g>
			<g id="XMLID_22_">
				<path id="XMLID_451_" class="st6" d="M367.6,1009.3l-7.8-19.8c-1-2.6-25.1-63.8-29.3-93.3c-2.7-18.8-0.9-30.2,5.9-38.1
					c8.1-9.4,21.7-10.4,31.3-10.4c9.5,0,23.1,1.1,31.3,10.4c6.8,7.9,8.6,19.3,5.9,38.1c-4.2,29.5-28.3,90.7-29.3,93.3L367.6,1009.3z
					 M367.6,864.5c-9.8,0-15.8,1.5-18.5,4.6c-3.2,3.6-3.8,11.7-2,24.7c2.5,17.4,13,48.1,20.5,68.7c7.5-20.5,18-51.3,20.5-68.7
					c1.9-13,1.2-21-2-24.7C383.4,866.1,377.4,864.5,367.6,864.5z"/>
			</g>
		</g>
		<g id="XMLID_32_">
			<g id="XMLID_37_">
				<g id="XMLID_41_">
					<path id="XMLID_450_" class="st4" d="M457.5,864.5c-4.5,0-8.2-3.5-8.4-8c0-0.2-1-19.3-4.5-34.6c-1.1-4.5,1.8-9.1,6.3-10.1
						c4.5-1.1,9.1,1.8,10.1,6.3c3.9,16.8,4.9,36.7,5,37.6c0.2,4.6-3.4,8.6-8,8.8C457.7,864.5,457.6,864.5,457.5,864.5z"/>
				</g>
				<g id="XMLID_38_">
					<g id="XMLID_40_">
						<path id="XMLID_449_" class="st4" d="M461.4,882.4c-4.1,0-7.7-3-8.3-7.2c-0.1-0.5-4.6-27.9-28-44.5c-3.8-2.7-4.7-7.9-2-11.7
							c2.7-3.8,7.9-4.7,11.7-2c29.5,20.9,34.7,54.4,34.9,55.8c0.7,4.6-2.5,8.9-7.1,9.6C462.2,882.4,461.8,882.4,461.4,882.4z"/>
					</g>
					<g id="XMLID_39_">
						<path id="XMLID_448_" class="st4" d="M459.9,875.8c-4.4,0-8.1-3.4-8.4-7.9c-1.1-16.2,5.9-50.4,40.1-64.3
							c4.3-1.8,9.2,0.3,11,4.6c1.8,4.3-0.3,9.2-4.6,11c-31.3,12.8-29.7,46.2-29.7,47.6c0.3,4.6-3.3,8.6-7.9,8.9
							C460.2,875.8,460,875.8,459.9,875.8z"/>
					</g>
				</g>
			</g>
			<g id="XMLID_34_">
				<path id="XMLID_443_" class="st5" d="M457.5,856.1c26.2,0,32.9,10.1,28.8,38.9c-4.1,28.8-28.8,91.3-28.8,91.3
					s-24.7-62.5-28.8-91.3C424.5,866.2,431.3,856.1,457.5,856.1z"/>
			</g>
			<g id="XMLID_33_">
				<path id="XMLID_444_" class="st6" d="M457.5,1009.3l-7.8-19.8c-1-2.6-25.1-63.8-29.3-93.3c-2.7-18.8-0.9-30.2,5.9-38.1
					c8.1-9.4,21.7-10.4,31.3-10.4c9.5,0,23.1,1.1,31.3,10.4c6.8,7.9,8.6,19.3,5.9,38.1c-4.2,29.5-28.3,90.7-29.3,93.3L457.5,1009.3z
					 M457.5,864.5c-9.8,0-15.8,1.5-18.5,4.6c-3.2,3.6-3.8,11.7-2,24.7c2.5,17.4,13,48.1,20.5,68.7c7.5-20.5,18-51.3,20.5-68.7
					c1.9-13,1.2-21-2-24.7C473.3,866.1,467.2,864.5,457.5,864.5z"/>
			</g>
		</g>
	</g>
	<g id="XMLID_6_">
		<g id="XMLID_4_">
			<path id="XMLID_438_" class="st7" d="M187.9,959.7l19-18.9c14.4-14.4,34-22.5,54.4-22.5h213.6c22.1,0,43.2,9.5,57.8,26.1
				l13.5,15.3H187.9z"/>
		</g>
		<g id="XMLID_5_">
			<path id="XMLID_442_" class="st6" d="M193.9,965.6L182,953.7l19-18.9c16.1-16.1,37.6-24.9,60.3-24.9h213.6
				c24.5,0,47.9,10.5,64.1,28.9l13.5,15.3l-12.6,11.1l-13.5-15.3c-13-14.8-31.8-23.2-51.5-23.2H261.3c-18.3,0-35.5,7.1-48.4,20
				L193.9,965.6z"/>
		</g>
	</g>
	<g id="XMLID_77_">
		<g id="XMLID_110_">
			<g id="XMLID_115_">
				<g id="XMLID_119_">
					<path id="XMLID_441_" class="st4" d="M1043.6,864.5c-4.5,0-8.2-3.5-8.4-8c0-0.2-1-19.3-4.5-34.6c-1.1-4.5,1.8-9.1,6.3-10.1
						c4.5-1.1,9.1,1.8,10.1,6.3c3.9,16.8,4.9,36.7,5,37.6c0.2,4.6-3.4,8.6-8,8.8C1043.9,864.5,1043.7,864.5,1043.6,864.5z"/>
				</g>
				<g id="XMLID_116_">
					<g id="XMLID_118_">
						<path id="XMLID_440_" class="st4" d="M1047.5,882.4c-4.1,0-7.7-3-8.3-7.2c-0.1-0.5-4.6-27.9-28-44.5c-3.8-2.7-4.7-7.9-2-11.7
							c2.7-3.8,7.9-4.7,11.7-2c29.5,20.9,34.7,54.4,34.9,55.8c0.7,4.6-2.5,8.9-7.1,9.6C1048.4,882.4,1047.9,882.4,1047.5,882.4z"/>
					</g>
					<g id="XMLID_117_">
						<path id="XMLID_439_" class="st4" d="M1046,875.8c-4.4,0-8.1-3.4-8.4-7.9c-0.1-1.8-2.4-44.1,36.3-62.6c4.2-2,9.2-0.2,11.2,4
							c2,4.2,0.2,9.2-4,11.2c-28.6,13.7-26.8,46-26.8,46.3c0.3,4.6-3.2,8.7-7.9,9C1046.4,875.8,1046.2,875.8,1046,875.8z"/>
					</g>
				</g>
			</g>
			<g id="XMLID_112_">
				<path id="XMLID_127_" class="st5" d="M1043.6,856.1c26.2,0,32.9,10.1,28.8,38.9s-28.8,91.3-28.8,91.3s-24.7-62.5-28.8-91.3
					C1010.7,866.2,1017.4,856.1,1043.6,856.1z"/>
			</g>
			<g id="XMLID_111_">
				<path id="XMLID_435_" class="st6" d="M1043.6,1009.3l-7.8-19.8c-1-2.6-25.1-63.8-29.3-93.3c-2.7-18.8-0.9-30.2,5.9-38.1
					c8.1-9.4,21.7-10.4,31.3-10.4c9.5,0,23.1,1.1,31.3,10.4c6.8,7.9,8.6,19.3,5.9,38.1c-4.2,29.5-28.3,90.7-29.3,93.3L1043.6,1009.3
					z M1043.6,864.5c-9.8,0-15.8,1.5-18.5,4.6c-3.2,3.6-3.8,11.7-2,24.7c2.5,17.4,13,48.1,20.5,68.7c7.5-20.5,18-51.3,20.5-68.7
					c1.9-13,1.2-21-2-24.7C1059.4,866.1,1053.4,864.5,1043.6,864.5z"/>
			</g>
		</g>
		<g id="XMLID_100_">
			<g id="XMLID_105_">
				<g id="XMLID_109_">
					<path id="XMLID_276_" class="st4" d="M1133.5,864.5c-4.5,0-8.2-3.5-8.4-8c0-0.2-1-19.3-4.5-34.6c-1.1-4.5,1.8-9.1,6.3-10.1
						c4.5-1.1,9.1,1.8,10.1,6.3c3.9,16.8,4.9,36.7,5,37.6c0.2,4.6-3.4,8.6-8,8.8C1133.7,864.5,1133.6,864.5,1133.5,864.5z"/>
				</g>
				<g id="XMLID_106_">
					<g id="XMLID_108_">
						<path id="XMLID_129_" class="st4" d="M1137.4,882.4c-4.1,0-7.7-3-8.3-7.2c-0.1-0.5-4.6-27.9-28-44.5c-3.8-2.7-4.7-7.9-2-11.7
							c2.7-3.8,7.9-4.7,11.7-2c29.5,20.9,34.7,54.4,34.9,55.8c0.7,4.6-2.5,8.9-7.1,9.6C1138.2,882.4,1137.8,882.4,1137.4,882.4z"/>
					</g>
					<g id="XMLID_107_">
						<path id="XMLID_128_" class="st4" d="M1135.9,875.8c-4.4,0-8.1-3.4-8.4-7.9c-1.1-16.2,5.9-50.4,40.1-64.3
							c4.3-1.8,9.2,0.3,11,4.6c1.8,4.3-0.3,9.2-4.6,11c-31.6,12.9-29.7,47.3-29.7,47.6c0.3,4.6-3.2,8.7-7.9,9
							C1136.2,875.8,1136.1,875.8,1135.9,875.8z"/>
					</g>
				</g>
			</g>
			<g id="XMLID_102_">
				<path id="XMLID_114_" class="st5" d="M1133.5,856.1c26.2,0,32.9,10.1,28.8,38.9s-28.8,91.3-28.8,91.3s-24.7-62.5-28.8-91.3
					C1100.5,866.2,1107.3,856.1,1133.5,856.1z"/>
			</g>
			<g id="XMLID_101_">
				<path id="XMLID_124_" class="st6" d="M1133.5,1009.3l-7.8-19.8c-1-2.6-25.1-63.8-29.3-93.3c-2.7-18.8-0.9-30.2,5.9-38.1
					c8.1-9.4,21.7-10.4,31.3-10.4c9.5,0,23.1,1.1,31.3,10.4c6.8,7.9,8.6,19.3,5.9,38.1c-4.2,29.5-28.3,90.7-29.3,93.3L1133.5,1009.3
					z M1133.5,864.5c-9.8,0-15.8,1.5-18.5,4.6c-3.2,3.6-3.8,11.7-2,24.7c2.5,17.4,13,48.1,20.5,68.7c7.5-20.5,18-51.3,20.5-68.7
					c1.9-13,1.2-21-2-24.7C1149.3,866.1,1143.2,864.5,1133.5,864.5z"/>
			</g>
		</g>
		<g id="XMLID_78_">
			<g id="XMLID_95_">
				<g id="XMLID_99_">
					<path id="XMLID_123_" class="st4" d="M1223.3,864.5c-4.5,0-8.2-3.5-8.4-8c0-0.2-1-19.3-4.5-34.6c-1.1-4.5,1.8-9.1,6.3-10.1
						c4.5-1.1,9.1,1.8,10.1,6.3c3.9,16.8,4.9,36.7,5,37.6c0.2,4.6-3.4,8.6-8,8.8C1223.6,864.5,1223.4,864.5,1223.3,864.5z"/>
				</g>
				<g id="XMLID_96_">
					<g id="XMLID_98_">
						<path id="XMLID_122_" class="st4" d="M1227.2,882.4c-4.1,0-7.7-3-8.3-7.2c-0.1-0.5-4.6-27.9-28-44.5c-3.8-2.7-4.7-7.9-2-11.7
							c2.7-3.8,7.9-4.7,11.7-2c29.5,20.9,34.7,54.4,34.9,55.8c0.7,4.6-2.5,8.9-7.1,9.6C1228.1,882.4,1227.6,882.4,1227.2,882.4z"/>
					</g>
					<g id="XMLID_97_">
						<path id="XMLID_120_" class="st4" d="M1225.7,875.8c-4.4,0-8.1-3.4-8.4-7.9c-1.1-16.2,5.9-50.4,40.1-64.3
							c4.3-1.8,9.2,0.3,11,4.6c1.8,4.3-0.3,9.2-4.6,11c-31.3,12.8-29.7,46.2-29.7,47.6c0.3,4.6-3.3,8.6-7.9,8.9
							C1226.1,875.8,1225.9,875.8,1225.7,875.8z"/>
					</g>
				</g>
			</g>
			<g id="XMLID_92_">
				<path id="XMLID_94_" class="st5" d="M1223.3,856.1c26.2,0,32.9,10.1,28.8,38.9c-4.1,28.8-28.8,91.3-28.8,91.3
					s-24.7-62.5-28.8-91.3C1190.4,866.2,1197.1,856.1,1223.3,856.1z"/>
			</g>
			<g id="XMLID_79_">
				<path id="XMLID_103_" class="st6" d="M1223.3,1009.3l-7.8-19.8c-1-2.6-25.1-63.8-29.3-93.3c-2.7-18.8-0.9-30.2,5.9-38.1
					c8.1-9.4,21.7-10.4,31.3-10.4c9.5,0,23.1,1.1,31.3,10.4c6.8,7.9,8.6,19.3,5.9,38.1c-4.2,29.5-28.3,90.7-29.3,93.3L1223.3,1009.3
					z M1223.3,864.5c-9.8,0-15.8,1.5-18.5,4.6c-3.2,3.6-3.8,11.7-2,24.7c2.5,17.4,13,48.1,20.5,68.7c7.5-20.5,18-51.3,20.5-68.7
					c1.9-13,1.2-21-2-24.7C1239.1,866.1,1233.1,864.5,1223.3,864.5z"/>
			</g>
		</g>
	</g>
	<g id="XMLID_72_">
		<g id="XMLID_74_">
			<path id="XMLID_88_" class="st7" d="M953.8,959.7l19-18.9c14.4-14.4,34-22.5,54.4-22.5h213.6c22.1,0,43.2,9.5,57.8,26.1
				l13.5,15.3H953.8z"/>
		</g>
		<g id="XMLID_73_">
			<path id="XMLID_93_" class="st6" d="M959.7,965.6l-11.9-11.9l19-18.9c16.1-16.1,37.6-24.9,60.3-24.9h213.6
				c24.5,0,47.9,10.5,64.1,28.9l13.5,15.3l-12.6,11.1l-13.5-15.3c-13-14.8-31.8-23.2-51.5-23.2h-213.6c-18.3,0-35.5,7.1-48.4,20
				L959.7,965.6z"/>
		</g>
	</g>
	<g id="XMLID_71_">
		<path id="XMLID_84_" class="st8" d="M655.8,878.5c26.2,0,32.9,10.1,28.8,38.9c-4.1,28.8-28.8,91.3-28.8,91.3s-24.7-62.5-28.8-91.3
			C622.9,888.6,629.6,878.5,655.8,878.5z"/>
	</g>
	<g id="XMLID_70_">
		<path id="XMLID_89_" class="st9" d="M655.8,1028.6l-6.8-17.2c-1-2.6-25.1-63.7-29.3-93c-2.6-18.5-1-29.6,5.6-37.2
			c6-7,15.4-10.1,30.4-10.1s24.4,3.1,30.4,10.1c6.6,7.6,8.3,18.7,5.6,37.2c-4.2,29.3-28.2,90.4-29.3,93L655.8,1028.6z M655.8,885.8
			c-10.1,0-16.5,1.6-19.4,5c-3.4,4-4.1,12.1-2.2,25.6c2.6,18.3,14.1,51.3,21.6,71.8c7.5-20.5,19-53.5,21.6-71.8
			c1.9-13.5,1.2-21.6-2.2-25.6C672.3,887.4,665.9,885.8,655.8,885.8z"/>
	</g>
	<g id="XMLID_61_">
		<path id="XMLID_80_" class="st8" d="M745.7,878.5c26.2,0,32.9,10.1,28.8,38.9c-4.1,28.8-28.8,91.3-28.8,91.3s-24.7-62.5-28.8-91.3
			C712.7,888.6,719.5,878.5,745.7,878.5z"/>
	</g>
	<g id="XMLID_60_">
		<path id="XMLID_85_" class="st9" d="M745.7,1028.6l-6.8-17.2c-1-2.6-25.1-63.7-29.3-93c-2.6-18.5-1-29.6,5.6-37.2
			c6-7,15.4-10.1,30.4-10.1c15,0,24.4,3.1,30.4,10.1c6.6,7.6,8.3,18.7,5.6,37.2c-4.2,29.3-28.2,90.4-29.3,93L745.7,1028.6z
			 M745.7,885.8c-10.1,0-16.5,1.6-19.4,5c-3.4,4-4.1,12.1-2.2,25.6c2.6,18.3,14.1,51.3,21.6,71.8c7.5-20.5,19-53.5,21.6-71.8
			c1.9-13.5,1.2-21.6-2.2-25.6C762.1,887.4,755.8,885.8,745.7,885.8z"/>
	</g>
	<g id="XMLID_51_">
		<path id="XMLID_76_" class="st8" d="M835.5,878.5c26.2,0,32.9,10.1,28.8,38.9c-4.1,28.8-28.8,91.3-28.8,91.3s-24.7-62.5-28.8-91.3
			C802.6,888.6,809.3,878.5,835.5,878.5z"/>
	</g>
	<g id="XMLID_45_">
		<path id="XMLID_81_" class="st9" d="M835.5,1028.6l-6.8-17.2c-1-2.6-25.1-63.7-29.3-93c-2.6-18.5-1-29.6,5.6-37.2
			c6-7,15.4-10.1,30.4-10.1c15,0,24.4,3.1,30.4,10.1c6.6,7.6,8.3,18.7,5.6,37.2c-4.2,29.3-28.2,90.4-29.3,93L835.5,1028.6z
			 M835.5,885.8c-10.1,0-16.5,1.6-19.4,5c-3.4,4-4.1,12.1-2.2,25.6c2.6,18.3,14.1,51.3,21.6,71.8c7.5-20.5,19-53.5,21.6-71.8
			c1.9-13.5,1.2-21.6-2.2-25.6C852,887.4,845.6,885.8,835.5,885.8z"/>
	</g>
	<g id="XMLID_23_">
		<g id="XMLID_26_">
			<path id="XMLID_49_" class="st7" d="M566,959.7l19-18.9c14.4-14.4,34-22.5,54.4-22.5H853c22.1,0,43.2,9.5,57.8,26.1l13.5,15.3
				H566z"/>
		</g>
		<g id="XMLID_25_">
			<path id="XMLID_75_" class="st6" d="M571.9,965.6l-11.9-11.9l19-18.9c16.1-16.1,37.6-24.9,60.3-24.9H853
				c24.5,0,47.9,10.5,64.1,28.9l13.5,15.3L918,965.2l-13.5-15.3c-13-14.8-31.8-23.2-51.5-23.2H639.4c-18.3,0-35.5,7.1-48.4,20
				L571.9,965.6z"/>
		</g>
	</g>
	<g id="XMLID_2_">
		<path id="XMLID_12_" class="st10" d="M150.2,980.6c0,0-7.9,65.3,49.4,83.3s106.7,21.3,160.6,129.2
			c53.9,107.8,180.9,134.8,277,101.2c96-33.7,168.5-136.6,267.9-101.2c99.4,35.5,230.8,57.4,281.3-3.3s60.6-77.5,119.6-106.1
			c59-28.6,48.9-103,48.9-103H150.2z"/>
	</g>
	<g id="XMLID_19_">
		<path id="XMLID_491_" class="st11" d="M131.5,980.6l4-7c8.9-15.7,25.5-25.4,43.5-25.4h1130.7c12.4,0,24.3,4.6,33.5,12.9l21.7,19.5
			"/>
	</g>
	<g id="XMLID_3_">
		<path id="XMLID_14_" class="st6" d="M1376.8,989.1H123.2c-4.7,0-8.4-3.8-8.4-8.4s3.8-8.4,8.4-8.4h1253.5c4.7,0,8.4,3.8,8.4,8.4
			S1381.4,989.1,1376.8,989.1z"/>
	</g>
	<g id="XMLID_136_">
		<path id="XMLID_490_" class="st12" d="M608.9,460.6c0,0-21.7-55-59.2-51.3c-37.5,3.7-46.6-69.5-102.4-69.5s-29.3,44.8-75,47.5
			s-96.9,25-96,73.3H608.9z"/>
	</g>
	<g id="XMLID_137_">
		<path id="XMLID_489_" class="st12" d="M1008.3,567.5h323.5c0,0-26.8-59.5-78.5-60.6c-51.8-1.1-39.4-76.3-107.9-77.4
			c-68.5-1.2-54.9,64-83.6,64S985.9,524.8,1008.3,567.5z"/>
	</g>
	<g id="XMLID_277_">
		<path id="XMLID_488_" class="st2" d="M799.4,281.7h-68.5c-7.9,0-7.9,12.3,0,12.3h68.5C807.3,294,807.3,281.7,799.4,281.7z"/>
	</g>
	<g id="XMLID_278_">
		<path id="XMLID_487_" class="st2" d="M785.9,348c-7.9,0-7.9,12.3,0,12.3C793.8,360.2,793.8,348,785.9,348z"/>
	</g>
	<g id="XMLID_279_">
		<path id="XMLID_486_" class="st2" d="M660.1,576h-34.8c-7.9,0-7.9,12.3,0,12.3h34.8C668,588.2,668,576,660.1,576z"/>
	</g>
	<g id="XMLID_280_">
		<path id="XMLID_485_" class="st2" d="M1113.7,609.2c-0.7-0.7-1.5-1.5-2.2-2.2c-1.1-1.1-2.8-1.8-4.3-1.8c-1.5,0-3.3,0.7-4.3,1.8
			c-1.1,1.2-1.9,2.7-1.8,4.3c0.1,1.6,0.6,3.2,1.8,4.3c0.7,0.7,1.5,1.5,2.2,2.2c1.1,1.1,2.8,1.8,4.3,1.8c1.5,0,3.3-0.7,4.3-1.8
			c1.1-1.2,1.9-2.7,1.8-4.3C1115.5,611.9,1114.9,610.4,1113.7,609.2z"/>
	</g>
	<g id="XMLID_281_">
		<path id="XMLID_484_" class="st2" d="M888.1,601.8H850c-7.9,0-7.9,12.3,0,12.3h38.2C896,614.1,896,601.8,888.1,601.8z"/>
	</g>
	<g id="XMLID_282_">
		<path id="XMLID_483_" class="st2" d="M460.2,508.6c-7.9,0-7.9,12.3,0,12.3C468.1,520.9,468.1,508.6,460.2,508.6z"/>
	</g>
	<g id="XMLID_283_">
		<path id="XMLID_482_" class="st2" d="M936.4,358.1h-35.9c-7.9,0-7.9,12.3,0,12.3h35.9C944.3,370.4,944.3,358.1,936.4,358.1z"/>
	</g>
	<g id="XMLID_284_">
		<path id="XMLID_481_" class="st2" d="M783.5,489.1c-1.2-1.1-2.7-1.8-4.3-1.8H777c-1.6,0-3.2,0.7-4.3,1.8c-1.1,1.1-1.9,2.8-1.8,4.3
			c0.1,1.6,0.6,3.2,1.8,4.3c1.2,1.1,2.7,1.8,4.3,1.8h2.2c1.6,0,3.2-0.7,4.3-1.8c1.1-1.1,1.9-2.8,1.8-4.3
			C785.3,491.8,784.7,490.2,783.5,489.1z"/>
	</g>
	<g id="XMLID_285_">
		<path id="XMLID_480_" class="st2" d="M1220.6,661.3h-10.1c-3.2,0-6.3,2.8-6.1,6.1c0.1,3.3,2.7,6.1,6.1,6.1h10.1
			c3.2,0,6.3-2.8,6.1-6.1C1226.6,664.1,1224,661.3,1220.6,661.3z"/>
	</g>
	<g id="XMLID_286_">
		<path id="XMLID_461_" class="st2" d="M1078,690.5c-7.9,0-7.9,12.3,0,12.3C1085.8,702.8,1085.9,690.5,1078,690.5z"/>
	</g>
</g>
</svg>
